<?xml version="1.0" encoding="UTF-8"?>
<svg width="23px" height="24px" viewBox="0 0 23 24" version="1.1" xmlns="http://www.w3.org/2000/svg" xmlns:xlink="http://www.w3.org/1999/xlink">
    <!-- Generator: Sketch 46 (44423) - http://www.bohemiancoding.com/sketch -->
    <title>Search</title>
    <desc>Created with Sketch.</desc>
    <defs></defs>
    <g id="icons" stroke="none" stroke-width="1" fill="none" fill-rule="evenodd">
        <g id="Artboard-Copy" transform="translate(-108.000000, -81.000000)">
            <g id="Search" transform="translate(104.000000, 78.000000)">
                <rect id="Rectangle-6-Copy" x="0" y="0" width="30" height="30"></rect>
                <path d="M21.2759531,19.8601053 L26.2140024,24.78398 L24.8018229,26.2002248 L19.7615479,21.1744176 C18.1329087,22.3244283 16.1453485,23 14,23 C8.4771525,23 4,18.5228475 4,13 C4,7.4771525 8.4771525,3 14,3 C19.5228475,3 24,7.4771525 24,13 C24,15.6556511 22.9648154,18.0695218 21.2759531,19.8601053 Z M14,21 C18.418278,21 22,17.418278 22,13 C22,8.581722 18.418278,5 14,5 C9.581722,5 6,8.581722 6,13 C6,17.418278 9.581722,21 14,21 Z" id="Combined-Shape" fill="#FFFFFF"></path>
            </g>
        </g>
    </g>
</svg>