<?xml version="1.0"?>
<svg xmlns="http://www.w3.org/2000/svg" xmlns:xlink="http://www.w3.org/1999/xlink" version="1.1" id="Capa_1" x="0px" y="0px" width="512px" height="512px" viewBox="0 0 492.082 492.081" style="enable-background:new 0 0 492.082 492.081;" xml:space="preserve" class=""><g><g>
	<g>
		<path d="M85.312,262.951h263.064V127.414c12.289-13.529,19.779-31.498,19.779-51.215C368.155,34.115,334.04,0,291.957,0    c-39.048,0-71.218,29.381-75.655,67.238C211.863,29.381,179.695,0,140.646,0C98.563,0,64.449,34.115,64.449,76.199    c0,20.283,7.94,38.701,20.863,52.354V262.951L85.312,262.951z M115.159,213.115h202.287v27.668H115.159V213.115z" data-original="#000000" class="active-path" data-old_color="#000000" fill="#FFFFFF"/>
		<path d="M232.353,271.6h-32.099L84.42,452.654c-4.05,6.332-2.2,14.746,4.13,18.797c2.271,1.451,4.81,2.146,7.32,2.146    c4.484,0,8.877-2.217,11.475-6.274l95.804-149.752v161.356c0,7.265,5.89,13.154,13.153,13.154c7.263,0,13.153-5.891,13.153-13.154    V317.57l95.804,149.752c2.599,4.059,6.989,6.274,11.476,6.274c2.51,0,5.051-0.694,7.32-2.146    c6.329-4.051,8.18-12.465,4.129-18.797L232.353,271.6z" data-original="#000000" class="active-path" data-old_color="#000000" fill="#FFFFFF"/>
		<polygon points="357.49,161.211 357.49,229.992 427.632,246.041 427.632,145.162   " data-original="#000000" class="active-path" data-old_color="#000000" fill="#FFFFFF"/>
	</g>
</g></g> </svg>
